<svg height="512pt" viewBox="-23 0 511 512" width="512pt" xmlns="http://www.w3.org/2000/svg"><path d="m454.1875 249.890625-31.503906-48.582031c-15.648438-24.125-42.152344-38.53125-70.90625-38.53125h-238.363282c-28.75 0-55.257812 14.40625-70.902343 38.53125l-31.503907 48.582031c-17.183593 26.5-12.929687 61.402344 10.113282 82.996094l14.671875 13.75c3.019531 2.832031 7.765625 2.679687 10.601562-.34375 2.832031-3.023438 2.675781-7.769531-.34375-10.601563l-14.675781-13.75c-6.070312-5.691406-10.445312-12.582031-13.046875-20.003906h127.925781l42.75 167.71875-120-112.457031c-3.023437-2.832031-7.769531-2.679688-10.601562.347656-2.832032 3.023437-2.679688 7.769531.34375 10.601563l138.742187 130.015624c9.84375 9.222657 22.476563 13.835938 35.109375 13.835938 12.632813 0 25.265625-4.613281 35.109375-13.835938l176.367188-165.277343c23.042969-21.59375 27.296875-56.496094 10.113281-82.996094zm-44.089844-40.421875 31.503906 48.585938c5.75 8.863281 8.375 18.945312 8.058594 28.882812h-122.746094l63.292969-97.605469c7.808594 5.1875 14.605469 11.984375 19.890625 20.136719zm-33.285156-27.050781-63.703125 98.234375-66.707031-102.875h105.378906c8.710938 0 17.171875 1.617187 25.03125 4.640625zm-77.507812 104.519531h-133.417969l66.710937-102.875zm-80.511719-109.160156-66.707031 102.875-63.703126-98.234375c7.859376-3.023438 16.316407-4.640625 25.03125-4.640625zm-195.203125 80.277344 31.507812-48.585938c5.285156-8.152344 12.082032-14.949219 19.890625-20.136719l63.292969 97.605469h-122.746094c-.320312-9.933594 2.308594-20.019531 8.054688-28.882812zm185.722656 230.542968-47.578125-186.660156h141.722656l-47.574219 186.660156c-13.429687 11.210938-33.136718 11.210938-46.570312 0zm224.503906-166.65625-157.628906 147.714844 42.75-167.71875h127.929688c-2.601563 7.421875-6.976563 14.3125-13.050782 20.003906zm0 0"/><path d="m232.597656 125.84375c15.671875 0 28.421875-12.75 28.421875-28.421875v-68.996094c0-15.675781-12.75-28.425781-28.421875-28.425781s-28.421875 12.75-28.421875 28.425781v68.996094c0 15.671875 12.75 28.421875 28.421875 28.421875zm-13.421875-97.417969c0-7.402343 6.019531-13.425781 13.421875-13.425781s13.421875 6.023438 13.421875 13.425781v68.996094c0 7.398437-6.019531 13.421875-13.421875 13.421875s-13.421875-6.023438-13.421875-13.421875zm0 0"/><path d="m135.34375 129.683594c16.667969 16.671875 34.828125 5.371094 40.199219 0 11.082031-11.082032 11.082031-29.117188 0-40.199219l-25.734375-25.738281c-11.082032-11.082032-29.117188-11.082032-40.199219 0-11.082031 11.082031-11.082031 29.117187 0 40.199218zm-15.125-55.328125c5.609375-5.609375 14.453125-4.53125 18.980469 0l25.734375 25.738281c5.234375 5.230469 5.234375 13.75 0 18.980469-5.230469 5.234375-13.75 5.238281-18.980469 0l-25.734375-25.734375c-5.234375-5.234375-5.234375-13.75 0-18.984375zm0 0"/><path d="m329.851562 129.683594 8.621094-8.625c2.929688-2.929688 2.929688-7.679688 0-10.609375-2.929687-2.925781-7.675781-2.929688-10.605468 0l-8.625 8.625c-5.230469 5.234375-13.75 5.234375-18.980469 0-5.234375-5.234375-5.234375-13.75 0-18.984375l25.734375-25.734375c5.230468-5.234375 13.75-5.234375 18.980468 0 3.9375 3.9375 5.039063 9.777343 2.808594 14.878906-1.660156 3.792969.070313 8.214844 3.867188 9.878906 3.792968 1.660157 8.214844-.070312 9.875-3.867187 4.726562-10.800782 2.390625-23.164063-5.941406-31.5-11.085938-11.082032-29.117188-11.082032-40.195313 0l-25.738281 25.734375c-11.078125 11.085937-11.078125 29.117187 0 40.203125 5.542968 5.542968 24.90625 15.289062 40.199218 0zm0 0"/></svg>